<?xml version="1.0" encoding="UTF-8"?>
<svg width="14px" height="14px" viewBox="0 0 14 14" version="1.1" xmlns="http://www.w3.org/2000/svg" xmlns:xlink="http://www.w3.org/1999/xlink">
    <!-- Generator: Sketch 60.1 (88133) - https://sketch.com -->
    <title>Shape</title>
    <desc>Created with Sketch.</desc>
    <defs>
        <path d="M30,97 L347,97 C363.568542,97 377,110.431458 377,127 L377,421 L377,421 L0,421 L0,127 C-2.02906125e-15,110.431458 13.4314575,97 30,97 Z" id="path-1"></path>
        <filter x="-8.6%" y="-8.5%" width="117.2%" height="120.1%" filterUnits="objectBoundingBox" id="filter-3">
            <feOffset dx="0" dy="5" in="SourceAlpha" result="shadowOffsetOuter1"></feOffset>
            <feGaussianBlur stdDeviation="10" in="shadowOffsetOuter1" result="shadowBlurOuter1"></feGaussianBlur>
            <feColorMatrix values="0 0 0 0 0   0 0 0 0 0   0 0 0 0 0  0 0 0 0.143520542 0" type="matrix" in="shadowBlurOuter1"></feColorMatrix>
        </filter>
    </defs>
    <g id="Page-1" stroke="none" stroke-width="1" fill="none" fill-rule="evenodd">
        <g id="Initial-screen" transform="translate(-248.000000, -658.000000)">
            <g id="Group-2" transform="translate(0.000000, 343.000000)">
                <mask id="mask-2" fill="white">
                    <use xlink:href="#path-1"></use>
                </mask>
                <g id="Rectangle-Copy-10">
                    <use fill="black" fill-opacity="1" filter="url(#filter-3)" xlink:href="#path-1"></use>
                    <use fill="#FFFFFF" fill-rule="evenodd" xlink:href="#path-1"></use>
                </g>
            </g>
            <g id="add_circle_outline-24px" transform="translate(248.000000, 658.000000)" fill="#B2B2B2" fill-rule="nonzero">
                <path d="M7.33333333,3.33333333 L6,3.33333333 L6,6 L3.33333333,6 L3.33333333,7.33333333 L6,7.33333333 L6,10 L7.33333333,10 L7.33333333,7.33333333 L10,7.33333333 L10,6 L7.33333333,6 L7.33333333,3.33333333 Z M6.66666667,-3.64153152e-14 C2.98666667,-3.64153152e-14 -3.64153152e-14,2.98666667 -3.64153152e-14,6.66666667 C-3.64153152e-14,10.3466667 2.98666667,13.3333333 6.66666667,13.3333333 C10.3466667,13.3333333 13.3333333,10.3466667 13.3333333,6.66666667 C13.3333333,2.98666667 10.3466667,-3.64153152e-14 6.66666667,-3.64153152e-14 Z M6.66666667,12 C3.72666667,12 1.33333333,9.60666667 1.33333333,6.66666667 C1.33333333,3.72666667 3.72666667,1.33333333 6.66666667,1.33333333 C9.60666667,1.33333333 12,3.72666667 12,6.66666667 C12,9.60666667 9.60666667,12 6.66666667,12 Z" id="Shape"></path>
            </g>
        </g>
    </g>
</svg>