<?xml version="1.0" encoding="UTF-8"?>
<svg width="22px" height="22px" viewBox="0 0 22 22" version="1.1" xmlns="http://www.w3.org/2000/svg" xmlns:xlink="http://www.w3.org/1999/xlink">
    <!-- Generator: Sketch 60.1 (88133) - https://sketch.com -->
    <title>location_searching-24px</title>
    <desc>Created with Sketch.</desc>
    <defs>
        <path d="M296.253235,0 C306.606787,0 315,8.39698186 315,18.74313 L315,27.25687 C315,37.6084149 306.615126,46 296.253235,46 L162.214,46 L157.5,52 L152.786,46 L18.7467649,46 C8.39321255,46 0,37.6030181 0,27.25687 L0,18.74313 C0,8.39158515 8.38487379,0 18.7467649,0 L296.253235,0 Z" id="path-1"></path>
        <filter x="-7.8%" y="-39.4%" width="115.6%" height="194.2%" filterUnits="objectBoundingBox" id="filter-2">
            <feOffset dx="0" dy="4" in="SourceAlpha" result="shadowOffsetOuter1"></feOffset>
            <feGaussianBlur stdDeviation="7.5" in="shadowOffsetOuter1" result="shadowBlurOuter1"></feGaussianBlur>
            <feColorMatrix values="0 0 0 0 0   0 0 0 0 0   0 0 0 0 0  0 0 0 0.25073596 0" type="matrix" in="shadowBlurOuter1"></feColorMatrix>
        </filter>
        <path d="M0.480769231,10.7077031 L0.961538462,10.7077031 L0.961538462,7.06152764 L0.480769231,7.06152764 C0.215240385,7.06152764 0,6.83552524 0,6.55671995 L0,5.35096154 C0,5.07215625 0.215240385,4.84615385 0.480769231,4.84615385 L3.17307692,4.84615385 C3.43860577,4.84615385 3.65384615,5.07215625 3.65384615,5.35096154 L3.65384615,10.7077031 L4.13461538,10.7077031 C4.40014423,10.7077031 4.61538462,10.9337055 4.61538462,11.2125108 L4.61538462,12.4182692 C4.61538462,12.6970745 4.40014423,12.9230769 4.13461538,12.9230769 L0.480769231,12.9230769 C0.215240385,12.9230769 0,12.6970745 0,12.4182692 L0,11.2125108 C0,10.9337055 0.215240385,10.7077031 0.480769231,10.7077031 Z M2.30769231,0 C1.35180288,0 0.576923077,0.813623798 0.576923077,1.81730769 C0.576923077,2.82099159 1.35180288,3.63461538 2.30769231,3.63461538 C3.26358173,3.63461538 4.03846154,2.82099159 4.03846154,1.81730769 C4.03846154,0.813623798 3.26355769,0 2.30769231,0 Z" id="path-3"></path>
    </defs>
    <g id="Page-1" stroke="none" stroke-width="1" fill="none" fill-rule="evenodd">
        <g id="Initial-screen" transform="translate(-308.000000, -115.000000)">
            <g id="pickuppin-2" transform="translate(34.000000, 99.000000)">
                <g id="pickuppin">
                    <g id="Rectangle-17">
                        <use fill="black" fill-opacity="1" filter="url(#filter-2)" xlink:href="#path-1"></use>
                        <use fill="#FFFFFF" fill-rule="evenodd" xlink:href="#path-1"></use>
                    </g>
                    <g id="info" transform="translate(283.000000, 15.000000)">
                        <g id="icon" transform="translate(0.692308, 0.538462)">
                            <mask id="mask-4" fill="white">
                                <use xlink:href="#path-3"></use>
                            </mask>
                            <use id="Mask" fill="#FFFFFF" fill-rule="nonzero" xlink:href="#path-3"></use>
                        </g>
                    </g>
                </g>
            </g>
            <g id="location_searching-24px" transform="translate(307.000000, 114.000000)">
                <polygon id="Path" points="0 0 24 0 24 24 0 24"></polygon>
                <path d="M20.94,11 C20.48,6.83 17.17,3.52 13,3.06 L13,1 L11,1 L11,3.06 C6.83,3.52 3.52,6.83 3.06,11 L1,11 L1,13 L3.06,13 C3.52,17.17 6.83,20.48 11,20.94 L11,23 L13,23 L13,20.94 C17.17,20.48 20.48,17.17 20.94,13 L23,13 L23,11 L20.94,11 Z M12,19 C8.13,19 5,15.87 5,12 C5,8.13 8.13,5 12,5 C15.87,5 19,8.13 19,12 C19,15.87 15.87,19 12,19 Z" id="Shape" fill="#B2B2B2" fill-rule="nonzero"></path>
            </g>
        </g>
    </g>
</svg>