<?xml version="1.0" encoding="UTF-8"?>
<svg width="16px" height="16px" viewBox="0 0 16 16" version="1.1" xmlns="http://www.w3.org/2000/svg" xmlns:xlink="http://www.w3.org/1999/xlink">
    <!-- Generator: Sketch 60.1 (88133) - https://sketch.com -->
    <title>Page 1</title>
    <desc>Created with Sketch.</desc>
    <defs>
        <path d="M30,97 L347,97 C363.568542,97 377,110.431458 377,127 L377,421 L377,421 L0,421 L0,127 C-2.02906125e-15,110.431458 13.4314575,97 30,97 Z" id="path-1"></path>
        <filter x="-8.6%" y="-8.5%" width="117.2%" height="120.1%" filterUnits="objectBoundingBox" id="filter-3">
            <feOffset dx="0" dy="5" in="SourceAlpha" result="shadowOffsetOuter1"></feOffset>
            <feGaussianBlur stdDeviation="10" in="shadowOffsetOuter1" result="shadowBlurOuter1"></feGaussianBlur>
            <feColorMatrix values="0 0 0 0 0   0 0 0 0 0   0 0 0 0 0  0 0 0 0.143520542 0" type="matrix" in="shadowBlurOuter1"></feColorMatrix>
        </filter>
    </defs>
    <g id="Page-1" stroke="none" stroke-width="1" fill="none" fill-rule="evenodd">
        <g id="Trip-screen" transform="translate(-281.000000, -511.000000)">
            <g id="Group-2" transform="translate(0.000000, 343.000000)">
                <mask id="mask-2" fill="white">
                    <use xlink:href="#path-1"></use>
                </mask>
                <g id="Rectangle-Copy-10">
                    <use fill="black" fill-opacity="1" filter="url(#filter-3)" xlink:href="#path-1"></use>
                    <use fill="#FFFFFF" fill-rule="evenodd" xlink:href="#path-1"></use>
                </g>
                <text id="Anjos---Linda-a-Velh" mask="url(#mask-2)" font-family="Avenir-Heavy, Avenir" font-size="17" font-weight="600" line-spacing="22" letter-spacing="-0.409999996" fill="#333333">
                    <tspan x="31" y="182">Anjos -  Linda-a-Velha</tspan>
                </text>
            </g>
            <g id="access_time-24px" transform="translate(281.000000, 511.000000)">
                <path d="M7.99333333,1.33333333 C4.31333333,1.33333333 1.33333333,4.32 1.33333333,8 C1.33333333,11.68 4.31333333,14.6666667 7.99333333,14.6666667 C11.68,14.6666667 14.6666667,11.68 14.6666667,8 C14.6666667,4.32 11.68,1.33333333 7.99333333,1.33333333 Z M8,13.3333333 C5.05333333,13.3333333 2.66666667,10.9466667 2.66666667,8 C2.66666667,5.05333333 5.05333333,2.66666667 8,2.66666667 C10.9466667,2.66666667 13.3333333,5.05333333 13.3333333,8 C13.3333333,10.9466667 10.9466667,13.3333333 8,13.3333333 Z" id="Shape" fill="#B2B2B2" fill-rule="nonzero"></path>
                <polygon id="Path" points="0 0 16 0 16 16 0 16"></polygon>
                <polygon id="Path" fill="#B2B2B2" fill-rule="nonzero" points="8.33333333 4.66666667 7.33333333 4.66666667 7.33333333 8.66666667 10.8333333 10.7666667 11.3333333 9.94666667 8.33333333 8.16666667"></polygon>
            </g>
        </g>
    </g>
</svg>